<svg width="32" height="32" xml:space="preserve" xmlns="http://www.w3.org/2000/svg"><circle style="fill:#fff;stroke-width:1.00157" cx="16" cy="16" r="16"/><path style="fill:#fec700" d="M-21.127 31.16c-2.34-.791-4.26-1.952-6.02-3.642-2.608-2.504-4.159-5.503-4.774-9.23-.176-1.071-.176-3.505 0-4.577.616-3.731 2.165-6.724 4.783-9.238C-24.334 1.78-20.73.237-16.778.037l.878-.045-.304.549c-.53.96-.756 1.436-.952 2.005-.173.502-.191.647-.191 1.526 0 .933.008.987.204 1.387.112.229.377.59.59.803.573.574 1.173.84 2.642 1.168 2.895.647 3.981 1.08 4.237 1.69.051.122.09.41.085.639-.015.806-.4 1.536-1.266 2.397-.68.675-1.197 1.035-2.435 1.693-1.521.81-1.928 1.16-2.331 2.012-.134.282-.164.46-.165.953-.001 1.099.21 1.446 1.976 3.243 1.732 1.762 2.152 2.329 2.345 3.16.082.357.081.462-.01.793-.199.714-1.283 1.56-2.44 1.903-.214.063-.866.142-1.49.18-1.276.076-1.342.086-2.06.319-1.263.41-2.205 1.368-2.515 2.56-.072.276-.106.735-.106 1.433 0 .93-.011 1.025-.122 1.024-.066 0-.48-.122-.919-.27z" transform="translate(32.053 .008)"/><path style="fill:#fe0096" d="M-16.506 31.735c-.107-.606-.135-1.754-.046-1.862.144-.174.538-.247 1.702-.314 1.341-.077 2.205-.278 3.115-.724 1.913-.937 3.062-2.127 3.622-3.75.17-.493.191-.656.194-1.457.002-.748-.026-.995-.161-1.456-.417-1.413-1.604-3.104-3.193-4.545-.308-.28-.56-.528-.56-.55 0-.023.241-.16.537-.306 2.3-1.137 4.308-3.244 4.928-5.175.459-1.43.382-2.94-.211-4.15-.437-.89-1.572-1.869-2.746-2.368-.621-.264-1.836-.627-3.029-.902-1.46-.339-1.49-.347-1.49-.421 0-.143.237-.626.946-1.92.837-1.529.618-1.4 1.758-1.04 4.337 1.367 8.052 4.756 9.808 8.947.551 1.316.876 2.464 1.125 3.97.094.573.125 1.14.125 2.288 0 1.57-.076 2.292-.381 3.613-1.336 5.78-5.863 10.4-11.618 11.856-1.195.302-2.133.44-3.365.493l-1.013.044z" transform="translate(32.053 .008)"/></svg>