<svg width="282" height="75" xml:space="preserve" xmlns="http://www.w3.org/2000/svg"><path style="fill:#000;fill-opacity:1;fill-rule:nonzero;stroke:none" d="M101.416 8.632c.897 3.12 1 6.384 1.073 9.608a58.937 58.937 0 0 1-.765 9.684c-.126.79-.332 1.559-.667 2.285-.157.34-.292.517-.42.87-.063.176-.103.36-.156.54-.033.246-.079.491-.1.74-.016.197-.082 1.955-.087 2.107-.012.356-.056 1.542-.035 1.937.014.252.062.5.093.752.383.686.298.745 1.047 1.154 1.604.876 3.207 1.76 4.865 2.527.288.133.625.114.94.16.908.131.947.11 1.882.15.351-.012.704.005 1.053-.039 1.316-.163 3.157-.775 4.148-1.69.25-.23.435-.522.652-.784.14-.335.319-.657.418-1.007.502-1.778.26-3.98-.283-5.712-.169-.538-.407-1.051-.61-1.577-.819-1.613-1.847-3.177-3.283-4.312a6.396 6.396 0 0 0-.775-.523c-1.552-.893-3.126-1.747-4.69-2.62-.183-.052-1.15-.466-1.361-.205-.11.135-.323.385-.183.487 3.714 2.729 2.874 2.57 5.174 2.715 1.12.065 2.241.14 3.363.199.744.039 1.508.102 2.252.01.374-.047.737-.154 1.106-.23 1.597-.5 2.87-1.547 3.761-2.96.535-.85.673-1.366 1.018-2.295.5-1.776.67-3.676.167-5.476-.078-.279-.194-.545-.291-.818-.458-1.03-1.178-1.959-2.154-2.554-4.43-2.702-3.191-2.163-5.758-3.16-1.262-.393-2.59-.696-3.922-.652-.742.025-1.043.126-1.753.285-1.433.463-1.892 1.033-2.3 2.43l4.23 2.291c.261-1.208.68-1.681 1.886-2.07.258-.052.513-.124.774-.158 1.582-.202 3.179.17 4.66.696 1.565.705 2.778 1.294-2.087-1.363-.267-.146.501.346.739.536.428.342.76.66 1.077 1.106.15.213.27.447.404.67.117.259.255.51.352.776.625 1.713.51 3.552.06 5.29-.33.922-.422 1.342-.952 2.178-.85 1.341-2.087 2.254-3.62 2.655-.357.057-.712.137-1.072.17-.676.063-1.523.016-2.196-.02-1.165-.06-2.334-.14-3.483-.358-2.394-.702.11-.042 3.06 2.174.103.076-.205.158-.278.263-.017.024.058.006.087.012.474.1.34.076.883.274-1.077-.645-2.16-1.281-3.232-1.936-.28-.17.585.301.856.485 1.553 1.051 2.702 2.583 3.591 4.209.21.505.459.996.627 1.516.531 1.644.675 3.665.176 5.341-.09.304-.247.584-.371.876-.194.23-.36.488-.58.692-1.04.965-2.59 1.385-3.97 1.476-.352.023-.704-.005-1.056-.008-.63-.056-1.237-.094-1.86-.208-.308-.057-1.162-.405-.917-.21.962.766 2.107 1.27 3.12 1.966.213.146-.495-.169-.71-.31-.185-.123-.315-.313-.472-.469-.062-.238-.15-.472-.187-.716-.044-.3-.047-.604-.055-.908-.032-1.23.069-2.468.349-3.667.152-.483.367-.932.53-1.41.278-.808.388-1.658.463-2.505.308-3.278.61-6.564.578-9.86-.092-1.956-.216-3.912-.309-5.868-.028-.588-.043-1.177-.064-1.765-.004-.405.006-.81-.012-1.215-.007-.163-.04-.323-.061-.484zm25.142 13.788c-.118.066-.233.14-.355.199-.207.1-.424.18-.632.28-.995.477-1.974 1.024-2.83 1.726-.355.29-.674.62-1.011.93-1.022 1.104-2.253 2.228-2.668 3.734-.216.785-.122.953-.029 1.732.206.688.5 1.46 1.15 1.864 2.9 1.8 3.545 2.564 6.05 3.072.25.031.5.092.752.094 1.368.008 2.61-.73 3.628-1.58.272-.228.52-.485.78-.727 1.056-1.124 1.96-2.412 2.3-3.941.065-.294.092-.594.137-.891-.002-.749.064-.998-.2-1.715-.277-.755-.868-1.416-1.555-1.826-1.524-.91-3.079-1.768-4.618-2.651-.785-.286-.39-.18-1.181-.325l3.783 2.883c.712.205.356.078 1.064.388-1.131-.668-2.259-1.34-3.393-2.003-.222-.13.45.253.66.405.433.315.797.65 1.044 1.135.31.61.26.881.306 1.546-.041.277-.066.557-.124.831-.305 1.45-1.093 2.703-2.1 3.77-.245.229-.474.477-.736.687-1.34 1.08-2.592 1.45-4.272 1.075-.232-.066-.468-.118-.695-.199-1.15-.406-4.711-2.524 2.724 1.73.2.115-.395-.246-.566-.402-.475-.434-.483-.6-.755-1.178-.159-.678-.268-.833-.133-1.546.272-1.443 1.44-2.605 2.399-3.629.344-.284.673-.588 1.031-.854 1.238-.919 2.66-1.483 4.138-1.878zm15.724 11.96c-.416-1.546-.707-3.125-.969-4.704-.183-1.407-.326-2.822-.337-4.241-.002-.236-.002-1.437.142-1.748.05-.108.206-.119.31-.178.148.135.63.489.446.407-1.061-.472-1.976-1.296-3.1-1.589-.504-.131.76.714 1.134 1.077 1.176 1.142 1.352 1.402 2.624 2.467.442.37.909.708 1.363 1.061 2.198 1.587 4.536 2.895 7.004 4.056.389.183 1.053.045 1.418-.144.169-.087.298-.235.448-.353.095-.188.241-.358.286-.564.17-.778-.033-1.783-.14-2.515a84.797 84.797 0 0 0-.306-1.937c-.521-2.913-.27-1.461-.752-4.357-.39-2.45-.23-1.286-.497-3.487l-3.87-1.894c.46 2.284.22 1.085.719 3.597.242 1.455.49 2.816.648 4.284.065.609.106 1.22.136 1.833.03.602.08 1.475-.086 2.11-.035.133-.126.244-.19.367-.303.21-.37.317-.78.32-.215.001-.81-.22-.638-.09.933.707 1.996 1.226 2.979 1.864.8.52-3.603-2.15-2.427-1.515-1.312-.974-1.552-1.091-2.747-2.228-2.207-2.1-4.279-5.425-7.77-5.264-.114.171-.284.316-.34.514-.114.393-.013 1.581.01 1.909.102 1.433.265 2.862.378 4.295.129 1.497.305 2.988.452 4.483zm14.951-14.23c-.864.606-1.285 1.58-1.694 2.516-.443 1.215-.689 2.483-.894 3.755-.113.702-.314 1.957-.305 2.686.005.4.086.795.129 1.193.143.338.22.712.428 1.016.23.334.514.647.857.862a59.455 59.455 0 0 0 5.035 2.814c.435.216.934.275 1.408.384 1.432.33 1.46.275 2.915.38.468-.022.937-.021 1.404-.064 1.294-.12 2.977-.404 4.13-1.05.205-.115.384-.27.576-.404l.443-.4-4.05-2.5-.377.37c-.163.12-.315.255-.488.36-1.512.918-3.445 1.05-5.162 1.083-1.304-.126-1.569-.096-2.85-.447-.476-.13-1.754-.813-1.404-.466.726.717 1.697 1.139 2.588 1.637.326.183-.64-.408-.889-.687-.232-.261-.353-.604-.529-.906-.071-.378-.186-.75-.214-1.135-.055-.78.105-1.9.236-2.655.212-1.215.51-2.42 1.034-3.54.47-.86.946-1.707 1.856-2.157z"/><path style="fill:#000;fill-opacity:1;fill-rule:nonzero;stroke:none" d="M159.633 28.418c1.424-.186 2.867-.13 4.295-.274 1.119-.114 1.373-.195 2.44-.42.906-.322 2.808-.809 3.255-1.809.083-.186.086-.398.128-.597-.05-.215-.046-.45-.15-.643-.131-.243-.304-.483-.536-.632-1.551-1.003-3.164-1.909-4.781-2.803-.306-.17-.65-.263-.978-.384-.893-.332-1.088-.378-1.983-.654-.717-.202-1.437-.402-2.17-.537-.166-.03-.332-.07-.501-.077-.427-.017-.615.059-1.023.158-.727.278-.969.605-1.278 1.288l4.197 2.369c.233-.516.441-.759 1.01-.912.15-.019.297-.052.447-.057.968-.028 2.006.365 2.935.567.779.247 1.163.35 1.93.67.333.14 1.285.653.984.454-1.01-.667-2.078-1.241-3.116-1.861.184.132.395.234.552.398.11.115.153.28.23.42-.007.131.027.269-.017.391-.087.24-.449.543-.633.675-.664.476-1.434.77-2.21 1.003-.357.083-.71.183-1.071.248-1.963.352-3.977.293-5.954.115zm12.24-7.026c.008.093.01.185.024.277.05.344.338 1.854.346 1.9.354 2.052.651 4.112.928 6.176.458 3.108.658 6.24.816 9.374-.021.371.122.784-.04 1.134l4.58 1.931c-.054.015-.125.088-.16.046-.237-.278-.032-.81-.256-1.064-.506-3.199-.866-6.42-1.31-9.628-.309-2.62-.672-5.26-.526-7.903z"/><path style="fill:#000;fill-opacity:1;fill-rule:nonzero;stroke:none" d="M177.769 33.182c.016-.134.013-.271.048-.402.376-1.397 1.582-2.713 2.51-3.78.92-1.014.447-.518 1.421-1.487l-3.881-2.38c-.993.99-.512.484-1.444 1.517-1.018 1.202-2.13 2.417-2.844 3.837-.067.133-.106.279-.159.418zm10.42-11.104c-1.033-.045-2.115-.276-3.14-.043-.3.069-.576.215-.864.322-.241.212-.514.394-.722.638-.972 1.138-1.365 2.96-1.55 4.406-.055 1.22.022 2.453.263 3.652.152.754.253 1.018.477 1.742.278.673.33.876.707 1.493 1.388 2.277 4.2 3.248 6.36 4.49 1.7.504 3.462.665 5.213.344 1.274-.234 1.657-.434 2.855-.88 1.155-.494 2.165-1.128 2.802-2.248.371-.654.595-1.478.68-2.22.047-.399.026-.803.038-1.205-.045-.402-.042-.813-.135-1.206-.424-1.796-1.584-3.407-3-4.56-.299-.243-.633-.44-.95-.66-2.273-1.355-4.296-2.898-6.92-3.138-.991-.09-1.935.064-2.906.233-1.471.364-2.909.956-4.183 1.784-.223.145-.43.313-.645.47l3.944 2.498c.198-.148.389-.308.595-.445 1.229-.823 2.626-1.346 4.064-1.66.933-.152 1.828-.26 2.774-.133 1.916.258 4.25 1.8-.914-1.242.339.205.694.383 1.015.614 1.445 1.037 2.655 2.5 3.098 4.249.095.373.106.763.159 1.144-.005.377.023.755-.015 1.13-.065.65-.27 1.46-.593 2.04-.57 1.02-1.514 1.624-2.544 2.106-1.173.428-1.51.618-2.77.8-1.792.257-3.596-.02-5.26-.708 6.17 3.681 3.022 2.047 1.965.894-.539-.588-.934-1.29-1.246-2.017-.098-.272-.207-.539-.293-.815-.441-1.426-.576-2.905-.522-4.393.12-1.368.373-3.06 1.355-4.109.183-.195.423-.327.635-.491.26-.078.51-.191.778-.233 1.035-.16 2.293.092 3.295.382zM118.855 46.08c.358 3.342.404 6.703.417 10.06-.068 3.535-.264 7.072-.786 10.57-.18.94-.076.511-.29 1.288l4.192 2.24c.111-.877.063-.4.129-1.43.11-3.623.22-7.246.282-10.87.013-3.216.043-6.437.418-9.636z"/><path style="fill:#000;fill-opacity:1;fill-rule:nonzero;stroke:none" d="M121.115 47.689c.343-.831.627-1.701 1.074-2.485.134-.235.292-.455.438-.683.21-.226.392-.48.628-.678 1.574-1.314 4.048-1.55 6.004-1.54.726.005 1.448.092 2.171.138 1.804.247 3.634.576 5.29 1.372.377.181 1.455.822 1.077.644-3.195-1.511-3.852-2.593-2.594-.919.1.252.254.49.302.756.118.671-.073 1.352-.32 1.964a9.315 9.315 0 0 1-1.358 2.26c-.307.37-.671.69-1.007 1.034-2.386 2.065-4.947 2.614-7.984 2.997a37.11 37.11 0 0 1-3.253.17c-.775.007-1.31 0-2.064.172-.291.191-.545.247-.321.763.163.377 1.518 1.41 1.613 1.488 1.252 1.018 2.725 2.188 3.97 3.18 3.072 2.473 6.176 4.915 9.039 7.63l3.951 1.618c-3.037-2.728-6.284-5.206-9.425-7.812-2.313-1.948-1.44-1.18-3.406-2.942-.285-.256-.564-.52-.854-.77-.148-.127-.283-.28-.46-.36-.082-.038-.188.063-.271.026-.047-.02.081-.062.122-.094.61-.174 1.186-.19 1.82-.223 1.058-.053 2.116-.122 3.162-.296 3.063-.529 5.704-1.112 8.087-3.27.353-.36.728-.697 1.057-1.078a10.346 10.346 0 0 0 1.53-2.314c.286-.604.61-1.483.565-2.18-.02-.305-.179-.584-.268-.876-1.464-2.312-.365-.831-5.125-3.74-1.831-1.12-4.07-1.32-6.141-1.603-.743-.041-1.484-.119-2.228-.124-1.85-.015-3.875.12-5.588.9-.857.389-1.095.73-1.725 1.36-.163.236-.338.465-.49.709-.486.775-.802 1.648-1.338 2.392zm26.032 8.131c-.176.077-.45.188-.594.293-1.043.757-1.888 2.155-2.588 3.209-.909 1.605-2.079 3.238-2.265 5.133-.03.311.004.625.006.938.153.647.182 1.032.548 1.598.255.392.816.939 1.216 1.181 4.228 2.561 3.127 2.076 5.434 3.011.575.116.842.216 1.428.158.45-.044.89-.222 1.315-.357 2.029-.647-.77.264 1.488-.474 1.768-.638 3.358-1.72 4.396-3.313.187-.286.331-.599.497-.899.61-1.454.951-3.077.546-4.64-.073-.279-.198-.542-.297-.813-.185-.256-.333-.544-.556-.768a4.093 4.093 0 0 0-.879-.68c-2.691-1.527-3.883-2.677-6.468-2.964-1.14-.127-1.845-.031-2.978.043-1.463.216-2.973.543-4.142 1.514-.54.448-.633.673-1.01 1.236-.09.23-.182.458-.274.688l4.11 2.285.215-.608c.12-.191.22-.396.357-.575 1.021-1.325 2.737-1.743 4.304-1.985 1.192-.06 1.704-.148 2.905.056.478.08 1.738.722 1.409.365-.715-.775-1.777-1.137-2.656-1.719-.283-.186.6.323.864.535.224.18.39.423.585.634.114.244.255.478.342.733.5 1.456.205 3-.345 4.39-.386.747-.475 1.025-1.04 1.674-.978 1.124-2.287 1.824-3.714 2.196l-1.552.427c-.436.116-.767.225-1.222.225-.553 0-.758-.104-1.292-.26-1.664-.76-1.658-.787 2.542 1.598.24.136-.465-.298-.683-.467-.523-.405-.715-.576-1.001-1.179-.117-.246-.18-.513-.27-.77-.026-.286-.088-.571-.077-.858.024-.594.24-1.31.436-1.86.4-1.121.955-2.179 1.596-3.18.71-.954 1.984-2.884 3.369-2.84zm22.469-.691c-.463-.198-.978-.268-1.47-.357-.65-.119-.975-.209-1.65-.133-.29.033-.571.127-.857.19-.668.347-1.01.463-1.562.997-1.067 1.03-1.725 2.458-2.377 3.765-.613 1.233-1.219 2.52-1.421 3.898-.033.226-.042.456-.063.684.001 1.816 1.076 2.513 2.44 3.48 2.817 1.757 5.619 3.628 9 3.874.282.02.565.004.848.006.717-.076 1.307-.406 1.907-.771l-3.993-2.58c-.528.322-1.04.58-1.676.61-.959-.02-1.76-.11-2.693-.38a11.82 11.82 0 0 1-1.069-.364c-1.44-.57-3.214-1.76 1.935 1.281-.868-.592-2.12-1.313-2.427-2.406-.053-.19-.056-.39-.083-.584.006-.214-.005-.429.016-.641.14-1.353.685-2.637 1.232-3.865.707-1.518 1.488-3.18 3.027-4.027.24-.133.508-.211.762-.317.265-.037.527-.104.794-.112 1.15-.032 2.242.424 3.325.739zm9.187 15.927c.036-.382.116-1.206.139-1.501.245-3.269.544-6.53.842-9.795.324-3.544.524-7.098.805-10.646L177 47.266c-.026 3.594-.16 7.185-.531 10.762-.412 3.592-.848 7.224-1.987 10.673z"/><path style="fill:#000;fill-opacity:1;fill-rule:nonzero;stroke:none" d="M180.55 60.283c.43-.226.678-.362 1.181-.586.395-.176.808-.314 1.197-.502.56-.27 1.1-.576 1.647-.87.419-.226 3.637-1.99 3.993-2.184 1.809-.992 3.657-1.906 5.52-2.791l-3.549-2.328a320.537 320.537 0 0 1-5.31 2.935c-1.98 1.027-3.863 2.014-5.971 2.762-.767.272-1.555.503-2.358.642-.117.02-.237.008-.356.012z"/><path style="fill:#000;fill-opacity:1;fill-rule:nonzero;stroke:none" d="M180.262 58.903c1.934 1.842 3.47 4.066 5.058 6.2 1.817 2.505.942 1.29 2.627 3.644l3.748 1.619c-1.795-2.374-.893-1.152-2.703-3.67-.43-.62-.864-1.239-1.291-1.861-.935-1.36-1.806-2.779-2.873-4.041z"/><path style="fill:#000;fill-opacity:1;fill-rule:nonzero;stroke:none" d="M197.388 58.796c-.864-.044-2.012-.155-2.772.354-.164.109-.285.271-.427.407-.103.176-.236.338-.31.529-.41 1.057-.02 2.526.26 3.577.418 1.202.727 2.428.85 3.696.021.848-.342 1.618-1.084 2.064-.137.082-.29.135-.435.203-1.07.396-2.204.373-3.31.17l-.457-.143 3.812 2.913.457.081c1.177.11 2.4.112 3.492-.403.165-.094.34-.172.494-.282a3.176 3.176 0 0 0 1.243-1.904c.038-.188.029-.383.043-.575-.088-1.302-.424-2.58-.87-3.805-.254-.867-.709-2.316-.371-3.2.056-.147.167-.267.25-.4.11-.09.207-.202.331-.271.783-.437 1.879-.223 2.707-.07zm7.356-7.65c-.015.145-.041.29-.044.435-.025 1.533.102.42-.025 2.185-.097 1.356-.366 2.671-.644 3.998-.1.418-.196.836-.299 1.253-.24.97-.307 1.244-.609 2.166-.239.73-.5 1.45-.724 2.185-.154.566-.226 1.149-.305 1.728l4.23 2.213c.044-.568.097-1.134.224-1.69.431-1.93 1.017-3.823 1.375-5.77.16-.774.408-1.925.54-2.704.2-1.194.271-2.419.598-3.588zm-3.2 17.501c.095 1.046.104 2.097.135 3.145l.024.679 4.206 2.118-.041-.68a22.535 22.535 0 0 1 .087-3.014zm35.135-52.833c-2.084 1.323-4.086 2.77-6.055 4.256-.978.814-1.875 1.494-2.721 2.452-.854.967-1.419 1.868-1.954 3.04-.571 1.254-.746 2.058-1.116 3.37-.28 1.416-.693 2.834-.678 4.292.004.403.02.812.117 1.203.259 1.05.564 1.22 1.245 2.032 2.209 1.527 2.578 1.865 6.163 3.246.532.204 1.134.13 1.703.127 1.981-.008 3.84-.483 5.744-.956 1.873-.597 3.245-1.391 4.593-2.833.66-.704 1.47-1.854 1.95-2.702.246-.437.439-.902.659-1.354.154-.438.35-.864.464-1.314.33-1.307.251-2.663-.154-3.944-.332-1.051-.57-1.325-1.13-2.257-1.446-2.052-3.524-3.502-5.618-4.828-1.53-.872-3.045-1.772-4.591-2.616-.733-.4-1.636-.641-2.469-.452-.773.175-.939.4-1.558.862l3.783 2.41c.588-.381.7-.553 1.425-.627.509-.052 1.035.072 1.508.242.257.093.98.478.75.33-.937-.607-1.92-1.139-2.88-1.708 2.14 1.262 4.23 2.686 5.761 4.675.597.891.83 1.126 1.206 2.144.45 1.215.574 2.49.316 3.762-.09.444-.255.87-.383 1.304-.51 1.178-.632 1.607-1.372 2.689-.963 1.408-2.198 2.605-3.734 3.377-.54.27-1.124.44-1.686.661-.61.155-1.213.344-1.83.466-1.314.261-2.58.398-3.921.313-.588-.036-1.898-.827-1.748-.258.222.836 1.446.961 2.087 1.541.315.285-.732-.43-1.098-.646-.651-.657-1.037-.896-1.35-1.798-.13-.373-.177-.773-.21-1.167-.12-1.45.177-2.908.41-4.329.352-1.384.443-1.993 1.04-3.308 1.022-2.251 2.613-3.88 4.557-5.36.501-.356.99-.728 1.503-1.067 1.653-1.094 3.42-2.044 5.34-2.572z"/><path style="fill:#000;fill-opacity:1;fill-rule:nonzero;stroke:none" d="M256.946 15.933c-.07.044-.138.092-.21.132-1.184.64.509-.333-1.218.614-1.181.648-2.319 1.37-3.448 2.104-.81.573-1.492 1.01-2.211 1.7-.347.332-.658.698-.971 1.062-.64.744-1.141 1.391-1.655 2.225-.219.355-.403.73-.605 1.096-.517 1.067-.818 2.2-.952 3.376-.047.41-.09.823-.085 1.236.015 1.216.167 1.531.458 2.722.418 1.189.776 2.431 1.51 3.476.66.943 1.411 1.47 2.336 2.109 1.758.872 4.12 2.973 6.478 3.053a5.964 5.964 0 0 0 2.264-.378c.396-.147.762-.367 1.143-.551.808-.562 1.296-.826 1.949-1.577.297-.341.543-.725.792-1.103.469-.713.94-1.568 1.305-2.34.186-.39.345-.792.518-1.188.149-.393.303-.783.445-1.178.133-.368.267-.736.382-1.11.406-1.332.626-2.701.802-4.078.118-.848.124-1.707-.11-2.538-.257-.915-.75-1.715-1.237-2.52-.492-.727-1.036-1.428-1.686-2.023-1.405-1.287-4.93-2.95-5.695-3.375-.22-.058-.439-.128-.663-.174-.892-.183-1.995-.267-2.903-.192-.235.02-.467.068-.7.102l-.688.18 3.769 2.606.655-.138c.225-.02.45-.05.674-.062a8.468 8.468 0 0 1 3.455.532c-1.107-.659-2.218-1.31-3.321-1.977-.204-.123.42.22.622.347.215.135.426.279.626.436.697.553 1.293 1.225 1.803 1.951.167.26.346.514.502.782.75 1.286 1.12 2.512.966 4.009-.06.777-.075 1.143-.19 1.925a20.777 20.777 0 0 1-1.188 4.427c-.326.766-.657 1.593-1.058 2.324-.812 1.48-1.886 2.757-3.366 3.601-.373.154-.732.349-1.119.462-1.069.314-2.169.267-3.225-.058-.288-.089-1.09-.502-.841-.333.94.64 1.95 1.167 2.925 1.75-.934-.578-1.772-1.105-2.483-1.969-.822-.998-1.283-2.204-1.7-3.411-.271-1.123-.412-1.414-.421-2.56-.012-1.53.409-3.046.946-4.463.482-.991.572-1.278 1.23-2.196 1.076-1.499 2.465-2.733 3.984-3.765.961-.584 1.456-.925 2.477-1.388.975-.441 2-.715 3.042-.941z"/><path style="fill:#000;fill-opacity:1;fill-rule:nonzero;stroke:none" d="M229.458 29.875c.048.021.091.059.144.064.14.013.281-.008.422-.01.249-.004.498-.008.747-.008 1.204-.001 2.408.02 3.611.031 2.714.057 5.422-.165 8.123-.395a20.931 20.931 0 0 1 4.428-.058l-3.838-2.807c-1.376.056-2.75.135-4.11.365-2.64.363-5.297.532-7.961.442-1.053-.044-1.685-.06-2.725-.142-.653-.051-1.398-.12-2.047-.254-.25-.052-.486-.163-.741-.198zm19.878.641c1.474-.136 2.923-.439 4.378-.695 1.994-.35 1.985-.338 3.956-.64 2.317-.326 4.638-.63 6.975-.754 1.064-.021.56-.024 1.51 0l-3.75-2.705c-.839.086-.38.045-1.376.112-.926.068-1.849.139-2.762.315-1.252.24-2.475.622-3.734.832-3.018.554-6.088 1.076-9.16.656z"/><path style="fill:#000;fill-opacity:1;fill-rule:nonzero;stroke:none" d="M253.84 28.42c-.238.847-.538 1.676-.785 2.522-.147.575-.265 1.016-.034 1.578.078.184.47.771.44.956 1.466.652 2.89 1.408 4.398 1.957.142.051-.124-.275-.172-.418a6.815 6.815 0 0 1-.168-.615c-.189-.827-.262-1.662-.334-2.505-.044-.94-.073-1.88-.097-2.82L252.926 27c.15.96.183 1.927.26 2.895a525.6 525.6 0 0 0 .22 3.064c.01.13-.088.322.024.388 1.45.856 3.004 1.524 4.505 2.286-.102-.268.096.259-.068-.234-.1-.3-.28-.564-.388-.86-.083-.14-.21-.285-.261-.44-.095-.293-.043-.612-.008-.909.182-.842.427-1.692.956-2.389zm-20.6.306c.15.874.111 1.757.07 2.637-.068.75-.109 1.5-.147 2.252a2.327 2.327 0 0 1-.087.557c-.011.036-.02.073-.038.107-.007.015-.05.027-.035.035 1.46.767 2.934 1.507 4.401 2.26-.236-1.544-.226-3.11-.137-4.665.057-.804.127-1.606.204-2.407l-4.054-2.094a97.724 97.724 0 0 1-.07 2.48c-.052 1.468-.023 2.967-.353 4.404 1.465.79 2.925 1.59 4.394 2.373.014.007-.018-.027-.018-.043 0-.044.014-.087.022-.13.04-.225.074-.45.066-.68-.015-.772-.007-1.544-.004-2.316.032-.843.068-1.687.198-2.522zm1.808 10.538c.044 1.872-.18 3.74-.344 5.602a90.465 90.465 0 0 0-.438 6.461c-.012 1.055-.093 2.112-.04 3.167.032.642.06.758.14 1.385.226 1.122.673 2.216 1.437 3.083.181.206.388.39.582.584.207.17.406.353.623.513.216.16.44.311.674.444 1.524.866 3.039 1.754 4.6 2.553.25.129.538.16.813.22.674.148 1.132.179 1.82.254 1.156.08 2.325.226 3.485.123.638-.056 1.024-.15 1.647-.274.46-.118.84-.182 1.26-.407.721-.385 1.304-1.2 1.83-1.81.623-.735 1.193-1.518 1.455-2.46.113-.406.354-1.766.425-2.154.36-1.868.574-3.757.764-5.648.05-.863.21-1.717.24-2.582.018-.521-.003-.695-.03-1.225a16.522 16.522 0 0 0-.401-2.69c-.107-.415-.323-.789-.491-1.181-.244-.604-.206-1.272-.296-1.908l-.077-.265-4.517-1.82.256.01c.036.094.084.184.109.282.134.538-.008 1.1.092 1.642.143.417.358.798.565 1.186.336.85.546 1.753.63 2.663.04.99.024.21.002 1.169-.02.882.02 1.767-.059 2.648-.066.882-.162 1.759-.24 2.639-.092 1.016-.141 2.038-.356 3.039-.083.356-.15.716-.251 1.067-.345 1.192-.919 2.288-1.745 3.216-.897.995-1.524 1.682-2.877 2.003-.247.05-.492.114-.742.15-1.4.2-2.826.05-4.225-.062-.738-.112-1.109-.143-1.822-.35-.271-.08-1.033-.443-.8-.283 1.01.69 2.1 1.25 3.146 1.884.227.138-.47-.251-.692-.396-.221-.145-.425-.314-.638-.471-.432-.393-.687-.583-1.032-1.05-.508-.685-.8-1.506-1.038-2.315-.041-.218-.09-.434-.123-.654-.185-1.29-.12-2.598-.15-3.896 0-2.182.025-4.366.207-6.542.192-1.769.426-3.546.981-5.244z"/><path style="fill:#000;fill-opacity:1;fill-rule:nonzero;stroke:none" d="M232.48 40.148c-.63.042-1.261.136-1.892.152-.8.02-2.016-.052-2.78-.086-1.606-.065-3.2-.292-4.805-.38-.893-.049-1.53-.079-2.4.1-.329.067-.642.195-.962.293-.96.437-1.771 1.074-2.232 2.04-.228.476-.245.687-.36 1.197-.177 1.04-.033 2.088.312 3.077.317.82.908 1.528 1.678 1.967 1.516.866 3.052 1.699 4.578 2.548.991.29 2.022.392 3.045.502.81.088 1.624.181 2.44.197.363.007.727-.017 1.09-.025.328-.029.658-.046.985-.086.367-.044 1.309-.214 1.696-.283.618-.11 1.238-.211 1.857-.321a40.42 40.42 0 0 1 1.991-.257l-3.868-2.73c-.649.11-1.303.184-1.947.32-1.41.3-2.803.718-4.25.803-.338.012-.676.04-1.014.037-1.522-.014-3.293-.251-4.75-.691-.298-.09-.585-.214-.877-.321 1.12.669 2.237 1.341 3.36 2.005.158.094-.314-.19-.467-.293-.536-.358-1.009-.76-1.248-1.377-.395-.931-.66-1.856-.523-2.88.037-.186.063-.373.11-.556.21-.806.65-1.516 1.345-1.994.22-.151.467-.26.7-.39.29-.09.571-.204.866-.27.761-.168 1.392-.173 2.175-.161 1.57.023 3.135.179 4.698.308 1.813.187 3.626.36 5.446.459zm23.596 4.748c.048-.008.098-.01.144-.025.122-.042.234-.109.357-.146 1.187-.363 2.458-.457 3.684-.58 1.886-.142 3.778-.166 5.668-.167.655.024 1.316.1 1.95.277.172.048.347.096.508.176.153.077.575.37.425.289-1.219-.664-2.421-1.357-3.631-2.035.096.109.206.207.289.326.399.58.48 1.38.445 2.063-.011.21-.049.417-.073.625-.122.52-.162.836-.424 1.319-.416.766-1.09 1.37-1.808 1.845-.268.177-.558.32-.837.481-1.72.86-3.59 1.294-5.467 1.645-1.216.22-2.45.296-3.684.303-.575.046-1.126-.053-1.675-.208l3.788 2.88a6.755 6.755 0 0 0 1.708.083c1.196-.083 2.391-.2 3.559-.49 1.865-.453 3.743-.943 5.462-1.818.291-.172.592-.33.874-.516.788-.52 1.53-1.17 2.037-1.976.327-.52.375-.828.538-1.398.04-.223.092-.444.117-.668.081-.713.063-1.627-.234-2.293-.07-.155-.17-.292-.256-.438-1.46-.89-2.907-1.8-4.379-2.67a2.388 2.388 0 0 0-.483-.205c-.775-.251-1.623-.244-2.426-.26-1.83.059-3.654.17-5.477.344-1.587.125-3.173.273-4.76.409z"/><path style="fill:#000;fill-opacity:1;fill-rule:nonzero;stroke:none" d="M227.438 46.447c.09-.003.18-.01.27-.008.075.002.994.068.995.068a17.89 17.89 0 0 0 1.889-.019 49.365 49.365 0 0 1 2.81-.166c.458-.014.232-.01.68-.013l-3.894-2.812-.675.032c-.897.078-1.79.185-2.688.252-.977.045-2.007.034-2.953-.257-.11-.034-.213-.091-.32-.137zm30.156 1.66c1.34-.15 2.691-.132 4.037-.123 1.024-.01 2.047.075 3.07.055l-3.86-2.78c-.945.064-1.892.071-2.838.088-1.46.01-2.921.013-4.376-.123zm-25.034-7.499a30.356 30.356 0 0 1-3.64-.614c-2.276-.592-4.466-1.477-6.576-2.504.969.544 1.91 1.14 2.906 1.632.306.15-.558-.392-.824-.606-1.063-.855-1.947-1.879-2.816-2.922-1.413-1.8-2.846-3.6-3.978-5.597-.295-.521-.559-1.06-.839-1.589-1.213-2.539-2.084-5.264-2.383-8.072-.181-1.71-.088-2.066.028-3.714.1-.488.16-.987.298-1.466a6.972 6.972 0 0 1 2.06-3.306c1.042-.938 1.626-1.189 2.863-1.915a24.678 24.678 0 0 1 5.052-1.879c1.804-.45 3.662-.694 5.496-.98 4.924-.637 9.888-.869 14.847-.98 3.531-.03 7.11.076 10.567.874.57.131 1.128.306 1.693.458 2.045.662 3.96 1.647 5.837 2.68.389.214 1.548.868 1.16.653-.874-.482-1.745-.971-2.617-1.457 1.452 1.017 2.895 2.109 4.049 3.469.17.2.323.416.485.625.922 1.303 1.395 2.822 1.779 4.353.46 1.637.885 3.297 1.073 4.992.126 1.137.104 1.704.116 2.834.003 1.349-.083 2.697-.083 4.046 0 1.947.035-.384-.005 1.659-.104 1.637-.724 2.888-1.565 4.256-.456.579-1.05 1.612-1.739 1.944-.134.065-.28.099-.42.148-.74.14-1.491.076-2.237.056-.493-.012-.549 0-1.036.022-.928.057-1.814.348-2.7.61-.162.038-.326.07-.487.113-1.062.277-.094.062-1.168.31-.476.11-.957.193-1.435.293l-.38.096 3.935 2.703.343-.1c1.028-.26 2.043-.57 3.091-.743.86-.234 1.712-.52 2.613-.535 1.12-.035 2.255.059 3.354-.21.179-.075.368-.127.536-.223.29-.166.444-.377.632-.64.362-.506.67-1.05 1.008-1.571.293-.475.558-.882.809-1.382.486-.971.765-2.01.825-3.097.02-.289.054-.577.062-.867.01-.435-.041-1.212-.07-1.642-.076-1.152-.073-.851-.13-2.087-.02-.427-.032-.854-.048-1.281-.027-.823-.058-2.072-.123-2.888-.133-1.642-.41-3.267-.742-4.88-.35-1.578-.742-3.163-1.674-4.515-.175-.228-.34-.463-.526-.683-1.193-1.41-2.686-2.545-4.16-3.64-2.33-1.371-4.574-2.763-6.982-3.96-1.013-.505-1.896-.935-2.957-1.337-.514-.195-1.043-.351-1.564-.527-.55-.13-1.096-.282-1.651-.391-3.369-.663-6.83-.735-10.246-.543-1.85.081-3.445.154-5.301.222-3.28.12-6.57.172-9.83.603-1.907.231-3.86.399-5.722.898-1.737.466-3.35 1.276-4.974 2.025-1.213.612-2.149.993-3.2 1.85-1.145.933-1.802 2.127-2.106 3.564-.11.518-.127 1.052-.19 1.577-.004.611-.034 1.222-.011 1.832.06 1.558.215 2.676.508 4.214.387 2.026.936 4.017 1.764 5.912.244.524.468 1.06.734 1.573.444.86 1.066 1.822 1.595 2.634a48.92 48.92 0 0 0 2.015 2.876c.873 1.063 1.764 2.11 2.8 3.02 1.69 1.49 2.981 1.914 5.397 3.313 2.182.974 4.423 1.837 6.72 2.499.804.188 1.608.335 2.42.488.24.046.481.098.722.147.191.042.381.09.573.126.123.023.248.035.372.052z"/><path style="fill:#000;fill-opacity:1;fill-rule:nonzero;stroke:none" d="m223.14 15.616.137-.02c.2-.055.395-.127.598-.165 1.059-.198 2.476-.327 3.496-.397 1.491-.104 3.884-.181 5.36-.236 3.484-.115 6.968-.263 10.455-.28l-3.13-2.24c-3.134.466-6.288.815-9.452.985-.93.025-1.858.07-2.788.075a55.398 55.398 0 0 1-5.467-.214c-1.039-.09-2.14-.208-3.16-.473zm27.304-1.206c.09-.021.183-.014.274-.027.781-.118-.164-.028 1.04-.162.952-.106 1.568-.133 2.559-.197 3.034-.154 6.073-.029 9.1.183.576.046 1.152.084 1.728.122l-3.772-2.74a58.76 58.76 0 0 0-1.39.122 63.94 63.94 0 0 1-8.598.183c-1.273-.07-1.881-.093-3.1-.197-1.44-.123-.469-.053-1.486-.162-.117-.012-.235-.008-.352-.028z"/><g transform="scale(2.34273)"><circle style="fill:#fff;stroke-width:1.00157" cx="16" cy="16" r="16"/><path style="fill:#fec700" d="M-21.127 31.16c-2.34-.791-4.26-1.952-6.02-3.642-2.608-2.504-4.159-5.503-4.774-9.23-.176-1.071-.176-3.505 0-4.577.616-3.731 2.165-6.724 4.783-9.238C-24.334 1.78-20.73.237-16.778.037l.878-.045-.304.549c-.53.96-.756 1.436-.952 2.005-.173.502-.191.647-.191 1.526 0 .933.008.987.204 1.387.112.229.377.59.59.803.573.574 1.173.84 2.642 1.168 2.895.647 3.981 1.08 4.237 1.69.051.122.09.41.085.639-.015.806-.4 1.536-1.266 2.397-.68.675-1.197 1.035-2.435 1.693-1.521.81-1.928 1.16-2.331 2.012-.134.282-.164.46-.165.953-.001 1.099.21 1.446 1.976 3.243 1.732 1.762 2.152 2.329 2.345 3.16.082.357.081.462-.01.793-.199.714-1.283 1.56-2.44 1.903-.214.063-.866.142-1.49.18-1.276.076-1.342.086-2.06.319-1.263.41-2.205 1.368-2.515 2.56-.072.276-.106.735-.106 1.433 0 .93-.011 1.025-.122 1.024-.066 0-.48-.122-.919-.27z" transform="translate(32.053 .008)"/><path style="fill:#fe0096" d="M-16.506 31.735c-.107-.606-.135-1.754-.046-1.862.144-.174.538-.247 1.702-.314 1.341-.077 2.205-.278 3.115-.724 1.913-.937 3.062-2.127 3.622-3.75.17-.493.191-.656.194-1.457.002-.748-.026-.995-.161-1.456-.417-1.413-1.604-3.104-3.193-4.545-.308-.28-.56-.528-.56-.55 0-.023.241-.16.537-.306 2.3-1.137 4.308-3.244 4.928-5.175.459-1.43.382-2.94-.211-4.15-.437-.89-1.572-1.869-2.746-2.368-.621-.264-1.836-.627-3.029-.902-1.46-.339-1.49-.347-1.49-.421 0-.143.237-.626.946-1.92.837-1.529.618-1.4 1.758-1.04 4.337 1.367 8.052 4.756 9.808 8.947.551 1.316.876 2.464 1.125 3.97.094.573.125 1.14.125 2.288 0 1.57-.076 2.292-.381 3.613-1.336 5.78-5.863 10.4-11.618 11.856-1.195.302-2.133.44-3.365.493l-1.013.044z" transform="translate(32.053 .008)"/></g></svg>